<?xml version="1.0" encoding="UTF-8"?>
<svg id="Layer_2" data-name="Layer 2" xmlns="http://www.w3.org/2000/svg" viewBox="0 0 1807.34 517.87">
  <g id="Layer_1-2" data-name="Layer 1">
    <g id="zQC7ic">
      <g>
        <path d="m990.45,168.5c1.81,12.2,14.09,12.46,20.13,20.12,15.86,20.1-12.33,45.91-32.58,47.89-16.33,1.59-23.9-8.76-38.77-6.77-13.92,1.86-21.8,8.2-38.19,6.77-47.51-4.15-56.68-60.96-16.03-82.19-3.5-2.61-7.88-2.54-11.88-4.67-7.2-3.84-11.31-12.85-11.8-20.76-3.58.93-8.77,2.5-12.37,2.41-7.55-.2-20.01-9.98-24.84-1.14-4.22,7.73-3.88,34.61-2.71,43.94,2.07,16.54,8.41,11.61,18.51,19.37,9.67,7.42,11.79,17.45,5.84,28.09-4.52,8.09-12.84,10.61-21.75,11.41-11.38,1.02-54.18,1.45-63.34-1.76-12.41-4.36-18.96-18.46-12.82-30.53,4.86-9.54,15.07-9.98,17.27-24.16,1.28-8.29,1.21-38.11-1.21-45.54-2.57-7.86-10.63-10.19-14.45-16.33-1.73-2.79-2.03-7.89-3.27-9.15-.97-.99-7.11-2.42-9.61-4-12.72-8.08-12.32-32.92-22.04-35.95-10.46-3.26-14.54,3.93-15.45,13.08-2.19,21.97-1.89,66.46,0,88.69.41,4.86,1.41,9.74,3.75,14,4.79,8.71,15.35,10.45,19.34,19.72,6.01,13.95-4.48,30.03-19.1,31.81-19.11,2.33-45.87,2.02-65,.12-9.63-.96-19.43-9.27-21.4-18.84-3.78-18.35,12.94-20.54,20.12-33.27,9.21-16.32,5.06-61.3,4.17-80.91-.5-11.12,4.33-38.93-14.5-34.7-8.82,1.98-11.76,22.38-17.13,30.24-10.6,15.52-37.67,10.34-40.49-7.5-1.84-11.66,1.25-46.15,7.76-55.97,6.24-9.41,17.82-11.23,28.3-11.96,36.68-2.53,92.39-2.43,129.15-.06,6.94.45,16.02,1.51,21.79,5.45,15,10.24,13.86,35.1,15.48,51.37,10.32-3.47,18.52-9.72,30.1-8.17,4.35.58,8.15,3.64,12.22,4.34,17.45,3,27.31-10.37,48.85-2.65,10.68,3.83,13.32,10.94,17.22,20.67,5.82-3.99,11.09-8.81,17.25-12.32,20.59-11.73,48-15.87,68.99-2.84,4.33,2.69,7.61,6.87,12.07,9.33,2.73-.02,5.05-6.36,7.41-8.37,8.37-7.14,42.54-6.56,54.23-5.96,15.02.78,31.59,1.88,33.71,20.16,2.69-2.01,2.85-5.55,4.92-8.68,8.51-12.89,26.68-11.75,40.73-11.49,5.58.1,17.05.66,22.17,1.52,8.54,1.45,13.36,7.98,16.88,15.11,5.04-3.23,9.46-7.22,14.77-10.09,30.65-16.56,72.93-11.84,94.11,17.26,11.78,16.19,21.18,58.44-6.12,63.51-13.55,2.52-56.83-3.3-65.44,3.25-4.88,3.71-2.21,12.25,1.18,16.54,7.16,9.06,21.3,10.47,31.63,6.76,13.59-4.89,19.35-24.69,39.09-13.5,5.35,3.03,5.13,6.06,8.05,9.7,2.9,3.61,4.04-7.06,4.18-8.82,2.58-33.03-1.93-69.46-.15-102.85-2.34-17.08-25.99-21.56-16.95-41.97,4.93-11.14,38.03-26.62,49.82-27.24,12.78-.67,23.18,9.65,22.91,22.37.84.9,10.03-6.69,11.8-7.72,5.8-3.39,23.41-12.18,29.34-13.29,17.26-3.21,29.46,3.73,31.09,21.63,2.13,23.36-1.43,49.31-1.15,72.73,6.41-9.56,15.57-14.57,26.04-18.94l-9.96-9.55c-20.47-28.97,8.64-65,41.69-52.28,24.88,9.57,27.9,39.9,9.88,57.93,4.8,6.51,7.73,13.28,6.96,21.66l9.07-9.27c14.39-6.15,29.56-18.93,45.9-16.65,4.36.61,8.16,3.66,12.23,4.35,22.85,3.87,37.6-12.89,65.84,1.68,37.84,19.52,22.21,66.91,25.7,100.91.55,5.33,2.67,9.17,5.31,13.64l2.97-.84c3.99-11.08,8.82-16.45,5.29-28.73-6.03-20.92-13.03-25.95-5.23-50.24,12.94-40.26,59.92-46.3,96.12-39.35,6.9,1.33,14.86,5.8,20.56,6.67,12.66,1.94,22.9-5.11,34.31,4.77,9.74,8.43,10.85,22.08,4.34,32.79-4.06,6.67-11.71,9.11-15.67,16.29-5.86,10.62-5.2,21.56-13.66,33.67-2.81,4.01-10.92,10.86-11.28,14.85-1,10.97,10.77,10.56,18.27,15,25.96,15.35,26.71,51.75,9.05,73.72-25.18,31.31-72.2,40.44-110.14,31.97-33.6-7.5-55.1-34.98-36.72-68.01-17.43.71-37.71,2.72-55.06,1.15-2.56-.23-6.48-.97-8.89-1.77-2.79-.92-8.57-5.31-10.08-5.31-1.62,0-7.23,4.45-10.05,5.34-10.68,3.36-41.55,2.4-53.95,1.8-5.15-.25-10.16-2.57-15.35-2.5-18.72.22-38.11,4-58.09,2.51-5.09-.38-11.71-3.06-15.54-3.27-2.9-.16-11.75,2.93-16.35,3.27-19.22,1.43-37.78-2.1-55.78-2.45-4.66-.09-10.39,2.25-15.29,2.45-13.06.53-45.53,1.74-56.36-2.95-5.32-2.3-8.36-6.61-11.27-11.37-10.99,6.67-20.08,12.7-32.93,15.61-65.01,14.72-110.83-43.02-95.51-104.24-3.38-.62-1.94.82-2.67,2.59-11.01,27.04-23.84,60.57-37.03,86.1-10.67,20.66-32.16,24.96-45.36,3.92-17.7-28.21-27.74-67.45-45.02-95.81-2.84-4.66-6.94-10.07-12.07-12.19,1.76,16.53-2.36,37.89,0,53.82Zm355.15,20.48c3.36-1.94,5.82-21.89,6.11-26.41,1.55-24.16,1.81-61.14,0-85.14-1.02-13.55-4.19-20.4-14.79-28.97l-1.83,4.06c3.27,39.59-2.62,85.45,1.26,124.25.42,4.2,3.24,15.7,9.26,12.22Zm-266.61-48.59c.89-.86,6.79-14.21,7.12-15.93,2.19-11.27-4.46-11.99-9-20.02-1.45-2.57-.82-6.28-3.73-7.5-.55,12.88-12.76,12.34-10.6,26.54.84,5.52,8.72,24.15,16.21,16.91Zm633.66-31.39c-10.45,3.13-11.37,40.3,3.3,42.27,14.26,0,13.75-47.37-3.3-42.27Zm-513.73,6.84c22.19,5.15,20.79-10.59.03-3.47l-.03,3.47Zm209.63-3.52l-2.35.59c-1.11,7.1,1.07,14.62,1.24,21.24.29,11.49-2.37,44.67,2.97,52.63,3.16,4.71,7.38,4.59,10.49-.06,5.16-7.72,5.7-42.87,4.18-52.45-1.23-7.8-9.67-13.02-14.8-18.39-1.19-1.25-1.57-3.43-1.72-3.56Zm72.28,0v62.1c0,.95,2.05,9.14,2.63,10.38.82,1.74,4.29,5.62,6.25,5.63,3.07-.69,5.14-3.98,6.39-6.67,3.29-7.07,3.83-43.49,1.99-51.41-1.92-8.26-12.67-12.93-17.26-20.03Zm-565,28.38c9.39-1.73,19.93-6.98,18.89-18.18-.72-7.7-8.21-12-13.5-5.41l-5.38,23.59Zm652.37-25.76c-6.71.97-10.17,5.45-12.17,11.56-3.44,10.49-2.9,49.58,2.33,59.22,1.45,2.67,7.59,9.47,10.53,9.2,4.29-.39,13.6-9.78,13.53-14.87-.27-16.23,2.9-33.28,1.51-49.44-.85-9.9-4.37-17.31-15.73-15.67Zm-646.45,71.89c2.94,4.15,15.97-5.44,7.05-7.77-2.39.77-9.15,4.81-7.05,7.77Zm776.75,55.92c-9.41,1.47-11.75,7.81-2.11,10.94,8.69,2.82,39.33,3.07,47.06-1.53,3.07-1.83,3.95-3.79,1.54-6.8-1.61-1.59-14.87-2.78-18.33-2.98-7.58-.43-20.95-.76-28.16.36Z"/>
        <path d="m271.46,473.09c-19.77-41.22-2.48-96.78,40.31-115.28,25.75-11.13,59.91-8.98,82.29,8.63l34.35-32.92c8.04-6.72,21.52-5.84,28.6,1.59,5.4,5.66,4.62,17.57,13.1,19.45,3.65.81,7.73-.12,11.5.34,13.92,1.72,11.19.44,23.9-1.16,16.47-2.07,42.15-6.64,48.47,12.87,7.39,22.82-2.13,68.41,1.83,93.99,2.5,16.17,23.6,12.02,27.57-.71,1.98-6.36,1.45-37.33.83-45.39-1.6-20.61-21.02-19.99-20.08-38.8,1-20.25,22.18-22.43,38.35-23.31,18.76-1.02,36.69-.26,37.24,23.25.44,18.61.1,37.86.18,56.7.03,7.32-1.21,14.14.22,22.15,1.39,7.77,10.6,10.74,16.84,13.92,4.85.06,4.58-38.7,4.25-43.27-.2-2.79-.84-9.14-1.5-11.52-3.28-11.87-27.49-16.37-13.76-37.93,6.31-9.92,36.9-24.6,48.43-23.89,7.4.45,11.78,5.3,19.47,5.45,8.62.17,16.21-5.31,24.9-5.98,13.28-1.03,28.63,4.12,33.19,17.7.9,2.68-.66,7.69,2.35,7.15,10.75-9.47,21.95-18.02,36.09-21.93,39.88-11.03,84.79,10.77,88.85,54.45,4.46,47.97-47.41,28.18-76.31,32.6-14.66,2.24-8.85,18.36.86,23.83,5.4,3.04,13.01,3.98,19.11,3.19,17.06-2.21,25.47-26.43,44.93-15.1,17.84,10.39,7.63,32.1-3.5,43.47-26.69,27.24-76.05,27.53-104.72,3.1-25.71-21.91-31.57-56.11-24.87-88.14-9.4,7.82-25.32-5.06-32.87-1.5-10.76,5.08-3.3,41.22-4.75,51.5,3.12,11.08,14.65,8.83,21.67,17.4,9.2,11.24,2.98,30.75-10.95,34.06-11.32,2.69-63.95,2.92-73.77-1.5-3.86-1.74-5.05-5.16-8.82-6.45-13.69,3.99-30.25,13.97-44.79,11.49-5.54-.95-8.81-4.53-15.68-4.55-20.9-.06-31.3,10.99-56.24.67-13.17-5.45-18.5-14.11-26.07-25.41-15.37,35.18-69.94,42.46-89.72,7.37l-5.63-14.48c-22.9,46.31-94.94,49.76-125.58,9.48-1.7,19.81-12.94,23.81-30.74,24.88-11.71.71-43.99,1.33-53.38-3.57-10.31-5.37-14.15-17.83-9.32-28.3,4.28-9.27,15.64-9.69,17.05-23.19.99-9.43,1.83-25.03,1.24-34.36-.68-10.69-2.51-17.53-12.48-23.03-10.67,17.43-28.54,28.26-47.97,33.74-14.73,4.16-35.28,1.18-31.91,22.39,1.96,12.34,20.6,15.42,23.34,28.73,3.21,15.58-6.61,26.14-21.66,27.51-14.07,1.28-45.33,1.56-59.07-.11-15.52-1.88-26.15-18.24-18.73-32.64,5.82-11.28,16.04-7.72,19.05-27.11,3.1-20.01,2.83-58.51,1.38-79.17-1.57-22.4-7.09-19.98-17.83-34.57-9.27-12.6-4.5-32.32,11.53-35.49,25.28-5,87.9-1.77,111.66,8.61,22.13,9.66,35.47,26.53,39.73,50.3l8.84-3.6c1.39-1.88-4.63-4.93-5.98-6.43-36.29-40.58,32.95-82.72,55.52-40.07,8.17,15.44,3.13,30.15-7.69,42.37,3.2,4.57,6.1,8.39,6.72,14.2,2.62,24.21-1.56,53.21-.05,78.12.48,7.93.97,22.79,10.71,24.19Zm-154.84-79.58c5.09,5.07,17.98.85,21.48-4.5,5.42-8.29,6.06-24.21.94-32.67-5.24-8.66-22.35-11.85-24.85.52-1.07,5.33-.95,23.56-.31,29.33.22,1.96,1.42,6.03,2.73,7.33Zm291.06,67.76v-49.68l-10.74,9.98c-14.24,8.71-33.67,4.78-42.37-9.58-3.37-5.56-5.09-16.76-12.69-18.07-22.33-3.83-21.67,32.19-19.15,46.32,2.73,15.32,9.89,28.57,27.52,28.21,18.46-.38,23.33-17.17,36.74-17.88,9.95-.53,14.08,4.82,20.69,10.7Zm416.61-67.16c-1.75.39-3.24,1.32-4.38,2.69,2.17,4.67,17.67,3.38,17.72,0-2.55-3.92-9.22-3.62-13.34-2.69Zm-324.22,71.89v-58.55c0-1.36-5.06-9.68-6.66-9.95-8.82,5.92-19.25,3.17-28.59,6.09-1.34,1.84-1.33,4.02-1.51,6.17-.54,6.39-.74,44.05.92,47.68,3.31,7.21,12.44,2.14,17.61,1.59,8.57-.9,12.2,1.43,18.24,6.97Z"/>
        <path d="m1485.57,369c7.09-10.62,12.63-13.32,25.42-14.24,11.7-.84,42.17-1.34,52.21,2.36,12.73,4.69,18.69,21.39,10.02,32.58-5.72,7.37-23.24,12.34-32.35,18.56-8.05,5.49-21.38,14.37-16.25,25.25,1.45,3.06,16.95,18.02,20.63,21.36,3.67,3.34,8.41,8.19,12.19,10.93,11.97,8.66,26.69,7.84,25.31,28.05-1.06,15.61-14.41,19.77-27.83,20.7-12.12.85-34.22.28-46.27-1.2-4.05-.5-8.74-4.38-10.64-4.35-1.56.02-4.88,3.18-7.6,3.82-12.73,3-49.19,2.91-62.2.43-11.17-2.13-17.86-14.13-17.84-24.76-12.54,14.96-30.06,25.67-49.77,28.37-38.39,5.26-75.15-12.7-88.84-49.68-2.94.02-6.69,10.86-8.64,13.85-35.39,54.1-119.55,47.59-144.15-12.66-6.33,19.47-23.36,32.92-42.31,39.38-23.73,8.09-75.49,8.85-101,6.75-14.93-1.23-26.22-10.38-24.19-26.49,1.68-13.36,18.48-15.32,20.93-29.96,3.02-17.99-.44-43.68,1.51-62.46-3.06-11.05.59-23.72-2.04-34.63-4.25-17.64-28.6-20.39-19.91-42.79,4.3-11.08,16.64-13.44,27.24-14.2,23.85-1.7,69.09-.62,91.21,7.07,28.56,9.92,49.11,34.74,40.22,66.23-2.02,7.17-9.23,15-8.93,21.9.33,7.45,8.38,11.8,10.76,18.34l2.33-.69c13.8-73.17,111.34-90.23,150.21-25.68,1.66,2.76,4.01,11,6.74,11.02,19.31-51.38,87.42-67.34,129.09-31.92,22.03,18.73,30.19,47.85,27.73,76.12l-7.56,27.94c7.88-5.73,9.36-13.86,10.06-23.08,1.88-24.67,2-66.5.06-91.11-.58-7.39-2.65-14.16-7.15-20.07-2.8-3.67-7.51-6.12-9.55-10.57-9.65-21.1,18.05-35.13,34.12-40.6,10.8-3.68,19.9-6.43,29.83,1.58,2.36,1.9,7.2,9.14,7.2,11.74v66.83Zm-453.38,13.92c.91.77,5.94,1.57,7.43,1.56,15.61-.12,18.97-28.23,4.36-34.03-20.95-8.32-14.58,30.11-11.79,32.47Zm155.74,11.2c-20.91,4.35-16.47,50.85-10.37,65.41,3.46,8.25,10.59,16.82,20.62,15.88,16.64-1.56,19.22-27.89,18.49-40.74-.88-15.55-7.47-44.97-28.74-40.55Zm152.8,0c-19.64,4.08-16.43,47.77-11.56,61.87,3.27,9.47,10.16,20.5,21.81,19.42,13.58-1.27,17.64-19.06,18.49-30.13,1.3-16.97-4.27-56.24-28.74-51.16Zm-304.44,35.45c-8.57,2.49-7.16,26.03-5.05,32.95,3.58,11.73,25.05,7.93,29.69-2.43,4.41-9.85,3.6-25.67-8.24-29.64-3.82-1.28-12.66-1.97-16.4-.88Z"/>
        <path d="m202.76,97.53c.02-.36,1.09-1.25,1.21-2.34l-2.38-.61c-2.92,12.4-16.27,17.58-27.91,14.25-19.92-5.7-15.4-34.68-27.71-38.56-7.59-2.4-11.82.75-13.73,7.7-3.87,14.11-3.32,77.45-1.59,93.94.49,4.7,2.25,11.33,4.78,15.33,6.3,9.97,18.75,9.96,20,24.97,1.61,19.32-13.77,25.66-30.21,26.73-13.9.9-56.37,1.63-66.9-5.45-10.16-6.84-14.06-21.73-6.02-31.55,9.64-11.78,19.03-11.25,21.19-31.22,1.67-15.41,2.14-78.61-1.58-91.58-1.44-5.02-3.65-9.29-9.55-9.5-13.21-.47-14.34,19.63-19.94,28.65-10.91,17.58-37.34,14.03-41.71-4.82-2.34-10.08,1.49-39.41,4.88-49.71,5.38-16.37,18.86-18.17,34.24-19.03,36.42-2.05,86.93-2.16,123.29,0,7.81.46,16.51,1.65,23.67,4.76,13.74-12.21,51.57-34.2,66.91-15.97,10.88,12.94-.69,52.46,8.31,60.31,4.83,4.21,22.88-.84,30.2-.62,26.08.79,49.05,17.51,51.47,44.44,1.5,16.74-3.54,58.76,2.11,71.23,1.26,2.78,8.99,10.06,7.14,3.52-8.73-30.94-11.41-52.84,6.4-81.64,27.24-44.06,97.6-54.21,126.54-7.36,10.01,16.2,17.85,52.88-7.11,59.21-14.05,3.57-40.35-1.02-56.28.57-24.78,2.47-12.14,26.94,9.63,28.26,20.15,1.23,23.79-15.67,36.65-17.53,20.36-2.94,30.45,14.38,21.61,32.22-12.62,25.45-44.44,36.74-71.5,35.15-21.33-1.26-40.07-12.18-54.45-27.25-1.01,14.28-9.95,22.13-23.84,23.5-11.41,1.12-49.68,1.54-59.13-2.15-2.57-1.01-6.41-4.81-8.25-4.81-1.58,0-5.33,3.94-8.01,5.01-8.65,3.45-57.97,3.29-67.22.37-9.89-3.12-16.48-13.42-15.4-23.71,1.49-14.24,20.18-17.48,20.18-30.74,0-27.47-1.33-56.76,0-83.99Zm213.21,23.06c5.51,1.3,11.7,2.1,16.56-1.77-.05-3.75-17.27-5.44-16.56,1.77Zm-143.64-.91c-5.69,1.17-10.71,7.12-12.37,12.49-2.78,8.99-2.5,45.58-.05,54.97,1.61,6.2,7.93,9.86,13.33,12.69,5.06-2.25,11.5-7.51,13.31-12.72,2.64-7.62,2.47-44.74,1.56-54.16-.85-8.77-6.38-15.21-15.78-13.28Z"/>
        <path d="m1748.25,313.71c37.8-5.21,42.65,39.03,38.03,66.36-3.88,22.96-19.82,40.08-44.81,30.89-29.52-10.86-30.79-92.07,6.79-97.25Zm3.56,16.48c-13.52,1.95-13.55,30.26-12.8,40.63.58,7.93,2.05,19.53,9.13,24,8.78,5.54,16.16-2.07,18.54-10.65,3.4-12.26,5.78-56.95-14.87-53.97Z"/>
        <path d="m1650.81,411.59c-4.94-1.54-.83-13.76.56-17.18,7.71-18.88,41.63-31.49,43.78-44.99,1.58-9.92-2.21-19.34-13.55-18.31-13.47,1.23-10.79,17.63-14.09,20.28l-15.93.9c-4.53-18.75,10.58-38,30-38.92,30.79-1.46,44.45,33.36,23.11,55.05-8.67,8.82-25.1,13.55-29.6,25.45h37.31c4.23,0,3.32,14.79,1.78,17.74h-63.37Z"/>
        <path d="m1778.91,455.78c21.42,21.06,4.77,62.71-28.59,59.89-15.16-1.28-32.8-13.95-28.85-30.57l15.62.02c3.72,1.28,3.84,14.23,16.78,14.11,21.03-.2,20.25-41.54-5.13-34.77-4.92,1.31-7.29,5.69-10.31,6.26-2.29.43-13.13.52-14.26-1.08l8.05-50.66c1.82-1.32,4.04-1.36,6.18-1.52,9.45-.68,30.26-1.18,39.19,0,7.66,1.01,5.93,10.43,4.17,16.1l-34.44,1.09c-3.63,1.81-2.87,12.78-4.72,16.55l2.41,1.29c10.75-6.98,24.77-5.67,33.88,3.29Z"/>
        <path d="m1649.04,513.32c-2.27-7.99,2.79-19.43,7.8-25.92,7.41-9.6,36.09-24.98,38.15-34.06,2.65-11.74-3.98-24.28-16.81-19.15-10.51,4.21-7.5,17.86-10.97,20.08-19.3,5.14-19.45-3.58-13.63-18.64,13.72-35.49,72.21-20.66,59.73,20.62-5.67,18.74-26.47,23.58-38.21,37.56l1.77,2.94h36.72c2.89,3.63,2.85,13.06,0,16.56h-64.56Z"/>
      </g>
    </g>
  </g>
</svg>