<?xml version="1.0" encoding="UTF-8"?>
<svg id="Layer_2" data-name="Layer 2" xmlns="http://www.w3.org/2000/svg" viewBox="0 0 87.63 49.13">
  <defs>
    <style>
      .cls-1 {
        stroke: #000;
        stroke-miterlimit: 10;
        stroke-width: .27px;
      }
    </style>
  </defs>
  <g id="Layer_1-2" data-name="Layer 1">
    <g>
      <path class="cls-1" d="m42.79.13c3.23.11,5.41.09,7.57.27,3.19.27,6.37.67,9.48,1.47,2.31.59,4.64,1.18,6.9,1.93,2.87.94,5.63,2.18,8.26,3.7,1.97,1.14,3.84,2.4,5.56,3.89,3,2.6,5.36,5.66,6.42,9.57,1.1,4.08.32,7.9-1.83,11.46-1.24,2.05-2.83,3.78-4.64,5.35-3.43,2.98-7.35,5.08-11.52,6.75-3.48,1.39-7.07,2.43-10.75,3.1-2.14.39-4.3.67-6.45.96-3.91.52-7.86.45-11.78.33-4.37-.13-8.7-.78-12.97-1.78-4.81-1.12-9.42-2.75-13.77-5.11-3.2-1.73-6.12-3.86-8.58-6.58C2.34,32.83.69,29.83.25,26.28c-.42-3.35.36-6.47,2.1-9.35,2.34-3.89,5.7-6.69,9.51-8.99,3.87-2.34,8.04-3.97,12.37-5.2,3.31-.94,6.68-1.66,10.1-2.01,3.16-.32,6.34-.45,8.47-.59Zm.93,1.25c-.81.05-1.65.14-2.49.14-2.89,0-5.76.27-8.6.76-2.51.44-4.48.94-6.93,1.61-3.86,1.05-6.99,2.52-10.48,4.53-3.12,1.81-5.96,3.95-8.23,6.8-2.61,3.26-3.95,6.91-3.41,11.15.26,2.03.97,3.88,2.02,5.6,1.74,2.85,4.11,5.08,6.81,6.97,4.19,2.94,8.26,4.87,13.13,6.29,3.7,1.08,6.96,1.75,10.79,2.13,2.39.24,4.79.29,7.19.38.79.03,1.59-.07,2.39-.11.72-.03,1.45-.03,2.16-.1,2.34-.23,4.68-.44,7.02-.74,3-.38,5.79-1.09,8.67-1.99,2.96-.93,5.31-2.09,8.04-3.59,2.68-1.48,4.96-3.43,7.14-5.62,2.87-2.89,4.88-6.21,5.2-10.39.2-2.54-.39-4.93-1.55-7.16-1.09-2.11-2.57-3.92-4.31-5.54-2.18-2.03-4.3-3.65-6.92-5.03-2.86-1.51-5.66-2.64-8.75-3.57-4.17-1.26-8.1-1.78-12.42-2.2-2.14-.21-4.29-.22-6.47-.32Z"/>
      <path class="cls-1" d="m51.75,33c-3.2,0-6.4,0-9.6,0-.12,0-.24,0-.34,0-.47,0-.56-.2-.62-.38-.05-.16.04-.5.34-.62.9-.48,1.42-1.26,1.67-2.2.45-1.73.49-3.44-.48-5.04-1.12-1.84-3.77-1.55-4.99-.16-1.43,1.63-1.42,5.45.12,6.9.24.22.49.44.69.69,0,0,0,0,0,0,.2.28.02.7-.32.75-.06,0-.11,0-.16,0-.74-.17-1.24-.72-1.59-1.34-1.22-2.15-1.39-4.39-.3-6.64.78-1.61,2.19-2.35,3.9-2.58,1.63-.22,3.11.1,4.42,1.15.94.75,1.4,1.77,1.61,2.92.28,1.44.14,2.84-.53,4.16-.05.1-.1.21-.14.32-.27.69-.05,1.03.7,1.05.54.02,1.08,0,1.62,0,1.19,0,2.38,0,3.56,0,.63,0,1.13-.51,1.15-1.15.02-1.15.02-2.3,0-3.44-.01-.74-.4-1.09-1.21-1.16-1.02-.09-2-.33-2.85-.94-1.07-.76-1.49-1.9-1.62-3.14-.16-1.54-.03-3.02,1.21-4.17.75-.7,1.68-.94,2.64-.95,1.5-.03,2.79.47,3.58,1.87.56,1,.7,2.11.8,3.22.03.29.02.58.09.86.12.55.49.68.93.32,1.35-1.12,2.19-2.65,3.04-4.16.13-.23.23-.47.33-.71.18-.42.46-.63.9-.61.33.02.66.04.99.02.86-.06,1.13.11,1.14.87,0,1.91,0,3.81,0,5.72,0,2.53,0,5.06,0,7.59,0,.83-.16.99-.96.99-3.24,0-6.48,0-9.72,0Zm7.94-5.99c0-1.32.02-2.64-.02-3.96,0-.27-.18-.67-.38-.75-.19-.07-.55.16-.76.35-.93.83-1.82,1.71-2.76,2.52-.38.33-.72.63-.74,1.17-.01.39-.03.77-.03,1.16,0,1.09-.02,2.17,0,3.26.02.92.33,1.21,1.23,1.21.73,0,1.46,0,2.19,0,.97,0,1.25-.28,1.26-1.24,0-1.24,0-2.49,0-3.73Zm-7.23-3.75s.02,0,.02,0c-.04-.65-.03-1.32-.15-1.96-.14-.73-.33-1.46-.63-2.14-.31-.71-.99-.92-1.73-.87-.71.04-1.21.4-1.57,1.01-.41.7-.43,1.47-.41,2.25.04,1.81.74,3.08,2.69,3.47,1.13.23,1.81.17,1.78-1.41,0-.12,0-.23,0-.35Z"/>
      <path class="cls-1" d="m25.11,33c-2.41,0-4.82,0-7.23,0-.9,0-1.04-.13-1.04-1.03,0-2.63-.05-5.25.02-7.88.04-1.52.27-3.03,1.24-4.31,1.14-1.5,2.71-2.24,4.5-2.54,2.25-.37,4.5-.37,6.68.44,2.39.89,3.76,2.68,3.95,5.19.18,2.26.09,4.54.11,6.81,0,.82,0,1.63,0,2.45,0,.73-.12.85-.83.85-2.47,0-4.94,0-7.4,0Zm5.5-5.92c0-1.28.06-2.57-.01-3.85-.11-2.02-1.01-3.6-2.88-4.47-1.64-.76-3.38-.73-5.12-.41-1.03.19-2,.54-2.74,1.35-.06.06-.09.15-.11.24-.05.21.07.43.29.48.09.02.17.04.26.04.16,0,.33-.1.49-.14,2.01-.46,4.28.1,5.17,2.35.64,1.63.6,3.28.1,4.93-.38,1.24-1.08,2.29-1.88,3.29-.16.2-.28.59-.19.77.1.19.48.3.74.31,1.64.03,3.28.02,4.92.01.75,0,.98-.26.98-1.04,0-1.28,0-2.57,0-3.85Zm-12.27,3.71c0,.96.22,1.3,1.15,1.17.28-.04.58-.13.79-.29.66-.52,1.34-1.04,1.89-1.66,1.57-1.78,2.15-3.88,1.71-6.23-.36-1.91-2.48-2.74-4.09-1.66-.88.59-1.35,1.48-1.45,2.47-.12,1.19,0,5.32,0,6.2Z"/>
      <path class="cls-1" d="m69.3,22.81c0,2.43-.01,4.86,0,7.3,0,.63.09,1.27.17,1.9.1.74-.11,1.06-.84,1.17-1.31.2-1.95-.36-1.95-1.73,0-4.69.02-9.38-.01-14.07-.01-1.5-.14-3.01-.31-4.5-.11-.89-.46-1.76-1.39-2.12-1.38-.54-3.17-.05-3.62,1.79-.16.65-.15,1.34-.2,2.01-.03.32.09.71-.37.79-.43.07-.85-.12-.9-.53-.09-.71-.16-1.46-.02-2.15.54-2.79,2.86-3.67,5.3-3.4,2.72.31,3.55,1.9,3.95,4.28.19,1.1.16,2.24.18,3.36.03,1.96,0,3.93,0,5.9Z"/>
    </g>
  </g>
</svg>