<?xml version="1.0" encoding="UTF-8"?>
<svg id="Layer_2" data-name="Layer 2" xmlns="http://www.w3.org/2000/svg" viewBox="0 0 41.77 41.62">
  <g id="Layer_1-2" data-name="Layer 1">
    <g id="JRWrTE">
      <path d="m22.29,13.72c3.97,1.65,8.3,4.68,12.28,6.09,1.34.47,2.92.45,4,.9,4.15,1.73,4.52,14.64-.44,16.53-4.32-.59-9.26,1.3-13.25-.39-.66-.28-1.71-1.26-2.2-1.31-.58-.05-1.28,1.2-2.42,1.35-1.43.18-2.1-.93-3.04-.65-.57.17-.85.96-1.3,1.17-2.93,1.37-5.3-2.78-6.8-2.64-1.2.11-1.82,2.16-2.63,3.01-.5.52-4.51,3.58-5.02,3.75-2.74.9-.86-4.71-.42-6.05.39-1.2,2.18-4.17,2.23-4.78.05-.55-.7-.92-.92-1.41-.5-1.12-.22-5.79-.04-7.23.13-1.02.71-3.57,1.2-4.4.77-1.29,8.86-6.78,10.21-6.95.62-.08,1.31.48,1.85.13s4.19-7.3,5.1-8.57c1.32-1.82,2.69-3.13,5.03-1.59,4.44,2.92-4.96,10.38-3.41,13.04Zm-9.53,1.12c-.43-.43-6.02,3.45-6.45,4.22-.93,1.68-.81,5.72-.9,7.67.94.2.6-.25.87-.69.68-1.13,6.94-10.75,6.48-11.2Zm24.76,18.81c1.04-1.86,1.25-8.5-.41-9.75-.75-.56-1.83-.15-2.67-.48l-14.16-6.8c-1.26-.25-3.66,4.12-3.32,4.51,1.7.9,5.86-1.69,6.48,1.01.78,3.42-4.54,1.5-5.55,1.55-2.61.14-7.36,4.94-8.97,7.07,2.69,1,4.56-1.44,6.9-2.2,6.08-1.97,6.57,4.02,10.86,5.42,2.29.75,4.3-.16,6.55-.27,1.57-.08,2.98.73,4.3-.07Z"/>
    </g>
  </g>
</svg>